<mxfile host="Electron" agent="Mozilla/5.0 (X11; Linux x86_64) AppleWebKit/537.36 (KHTML, like Gecko) draw.io/28.1.2 Chrome/138.0.7204.243 Electron/37.4.0 Safari/537.36" version="28.1.2">
  <diagram name="ページ1" id="xBl_KtWEU8fYsuN_UfG8">
    <mxGraphModel dx="731" dy="1618" grid="1" gridSize="10" guides="1" tooltips="1" connect="1" arrows="1" fold="1" page="1" pageScale="1" pageWidth="827" pageHeight="1169" math="0" shadow="0">
      <root>
        <mxCell id="0" />
        <mxCell id="1" parent="0" />
        <mxCell id="Oz3IrA9GsDrx0HkpNqOv-53" value="" style="group;rotation=90;" vertex="1" connectable="0" parent="1">
          <mxGeometry x="-340" y="-640" width="1370" height="400" as="geometry" />
        </mxCell>
        <mxCell id="Oz3IrA9GsDrx0HkpNqOv-1" value="" style="endArrow=none;html=1;rounded=0;" edge="1" parent="Oz3IrA9GsDrx0HkpNqOv-53">
          <mxGeometry width="50" height="50" relative="1" as="geometry">
            <mxPoint x="765" y="875" as="sourcePoint" />
            <mxPoint x="765" y="-485" as="targetPoint" />
            <Array as="points">
              <mxPoint x="765" y="795" />
              <mxPoint x="685" y="795" />
              <mxPoint x="685" y="715" />
              <mxPoint x="765" y="715" />
              <mxPoint x="765" y="675" />
              <mxPoint x="685" y="675" />
              <mxPoint x="685" y="595" />
              <mxPoint x="765" y="595" />
              <mxPoint x="765" y="555" />
              <mxPoint x="685" y="555" />
              <mxPoint x="685" y="515" />
              <mxPoint x="765" y="515" />
              <mxPoint x="765" y="475" />
              <mxPoint x="685" y="475" />
              <mxPoint x="685" y="435" />
              <mxPoint x="765" y="435" />
              <mxPoint x="765" y="155" />
              <mxPoint x="685" y="155" />
              <mxPoint x="685" y="-5" />
              <mxPoint x="765" y="-5" />
              <mxPoint x="765" y="-45" />
              <mxPoint x="765" y="-85" />
              <mxPoint x="685" y="-85" />
              <mxPoint x="685" y="-125" />
              <mxPoint x="765" y="-125" />
              <mxPoint x="765" y="-165" />
              <mxPoint x="685" y="-165" />
              <mxPoint x="685" y="-205" />
              <mxPoint x="765" y="-205" />
            </Array>
          </mxGeometry>
        </mxCell>
        <mxCell id="Oz3IrA9GsDrx0HkpNqOv-2" value="" style="endArrow=none;html=1;rounded=0;" edge="1" parent="Oz3IrA9GsDrx0HkpNqOv-53">
          <mxGeometry width="50" height="50" relative="1" as="geometry">
            <mxPoint x="775" y="-165" as="sourcePoint" />
            <mxPoint x="795" y="-165" as="targetPoint" />
          </mxGeometry>
        </mxCell>
        <mxCell id="Oz3IrA9GsDrx0HkpNqOv-3" value="" style="endArrow=none;html=1;rounded=0;" edge="1" parent="Oz3IrA9GsDrx0HkpNqOv-53">
          <mxGeometry width="50" height="50" relative="1" as="geometry">
            <mxPoint x="795" y="-205" as="sourcePoint" />
            <mxPoint x="775" y="-205" as="targetPoint" />
          </mxGeometry>
        </mxCell>
        <mxCell id="Oz3IrA9GsDrx0HkpNqOv-4" value="" style="endArrow=none;html=1;rounded=0;" edge="1" parent="Oz3IrA9GsDrx0HkpNqOv-53">
          <mxGeometry width="50" height="50" relative="1" as="geometry">
            <mxPoint x="775" y="-485" as="sourcePoint" />
            <mxPoint x="795" y="-485" as="targetPoint" />
          </mxGeometry>
        </mxCell>
        <mxCell id="Oz3IrA9GsDrx0HkpNqOv-5" value="&lt;font&gt;ダミー&lt;/font&gt;" style="text;html=1;align=center;verticalAlign=middle;whiteSpace=wrap;rounded=0;rotation=90;" vertex="1" parent="Oz3IrA9GsDrx0HkpNqOv-53">
          <mxGeometry x="750" y="-360" width="120" height="30" as="geometry" />
        </mxCell>
        <mxCell id="Oz3IrA9GsDrx0HkpNqOv-6" value="&lt;font&gt;スタート&lt;/font&gt;" style="text;html=1;align=center;verticalAlign=middle;whiteSpace=wrap;rounded=0;rotation=90;" vertex="1" parent="Oz3IrA9GsDrx0HkpNqOv-53">
          <mxGeometry x="750" y="-200" width="120" height="30" as="geometry" />
        </mxCell>
        <mxCell id="Oz3IrA9GsDrx0HkpNqOv-7" value="" style="endArrow=classic;startArrow=classic;html=1;rounded=0;" edge="1" parent="Oz3IrA9GsDrx0HkpNqOv-53">
          <mxGeometry width="50" height="50" relative="1" as="geometry">
            <mxPoint x="785" y="-485" as="sourcePoint" />
            <mxPoint x="785" y="-205" as="targetPoint" />
          </mxGeometry>
        </mxCell>
        <mxCell id="Oz3IrA9GsDrx0HkpNqOv-9" value="" style="endArrow=classic;startArrow=classic;html=1;rounded=0;" edge="1" parent="Oz3IrA9GsDrx0HkpNqOv-53">
          <mxGeometry width="50" height="50" relative="1" as="geometry">
            <mxPoint x="785" y="-205" as="sourcePoint" />
            <mxPoint x="785" y="-165" as="targetPoint" />
          </mxGeometry>
        </mxCell>
        <mxCell id="Oz3IrA9GsDrx0HkpNqOv-12" value="" style="endArrow=classic;startArrow=classic;html=1;rounded=0;" edge="1" parent="Oz3IrA9GsDrx0HkpNqOv-53">
          <mxGeometry width="50" height="50" relative="1" as="geometry">
            <mxPoint x="785" y="-165" as="sourcePoint" />
            <mxPoint x="785" y="155" as="targetPoint" />
          </mxGeometry>
        </mxCell>
        <mxCell id="Oz3IrA9GsDrx0HkpNqOv-13" value="" style="endArrow=none;html=1;rounded=0;" edge="1" parent="Oz3IrA9GsDrx0HkpNqOv-53">
          <mxGeometry width="50" height="50" relative="1" as="geometry">
            <mxPoint x="775" y="155" as="sourcePoint" />
            <mxPoint x="795" y="155" as="targetPoint" />
          </mxGeometry>
        </mxCell>
        <mxCell id="Oz3IrA9GsDrx0HkpNqOv-14" value="データ" style="text;html=1;align=center;verticalAlign=middle;whiteSpace=wrap;rounded=0;rotation=90;" vertex="1" parent="Oz3IrA9GsDrx0HkpNqOv-53">
          <mxGeometry x="780" y="-20" width="60" height="30" as="geometry" />
        </mxCell>
        <mxCell id="Oz3IrA9GsDrx0HkpNqOv-15" value="" style="endArrow=none;html=1;rounded=0;" edge="1" parent="Oz3IrA9GsDrx0HkpNqOv-53">
          <mxGeometry width="50" height="50" relative="1" as="geometry">
            <mxPoint x="775" y="435" as="sourcePoint" />
            <mxPoint x="795" y="435" as="targetPoint" />
          </mxGeometry>
        </mxCell>
        <mxCell id="Oz3IrA9GsDrx0HkpNqOv-16" value="" style="endArrow=classic;startArrow=classic;html=1;rounded=0;" edge="1" parent="Oz3IrA9GsDrx0HkpNqOv-53">
          <mxGeometry width="50" height="50" relative="1" as="geometry">
            <mxPoint x="785" y="155" as="sourcePoint" />
            <mxPoint x="785" y="435" as="targetPoint" />
          </mxGeometry>
        </mxCell>
        <mxCell id="Oz3IrA9GsDrx0HkpNqOv-17" value="ダミー" style="text;html=1;align=center;verticalAlign=middle;whiteSpace=wrap;rounded=0;rotation=90;" vertex="1" parent="Oz3IrA9GsDrx0HkpNqOv-53">
          <mxGeometry x="780" y="280" width="60" height="30" as="geometry" />
        </mxCell>
        <mxCell id="Oz3IrA9GsDrx0HkpNqOv-18" value="" style="endArrow=classic;startArrow=classic;html=1;rounded=0;" edge="1" parent="Oz3IrA9GsDrx0HkpNqOv-53">
          <mxGeometry width="50" height="50" relative="1" as="geometry">
            <mxPoint x="785" y="435" as="sourcePoint" />
            <mxPoint x="785" y="475" as="targetPoint" />
          </mxGeometry>
        </mxCell>
        <mxCell id="Oz3IrA9GsDrx0HkpNqOv-19" value="" style="endArrow=none;html=1;rounded=0;" edge="1" parent="Oz3IrA9GsDrx0HkpNqOv-53">
          <mxGeometry width="50" height="50" relative="1" as="geometry">
            <mxPoint x="775" y="475" as="sourcePoint" />
            <mxPoint x="795" y="475" as="targetPoint" />
          </mxGeometry>
        </mxCell>
        <mxCell id="Oz3IrA9GsDrx0HkpNqOv-20" value="スタート" style="text;html=1;align=center;verticalAlign=middle;whiteSpace=wrap;rounded=0;rotation=90;" vertex="1" parent="Oz3IrA9GsDrx0HkpNqOv-53">
          <mxGeometry x="780" y="440" width="60" height="30" as="geometry" />
        </mxCell>
        <mxCell id="Oz3IrA9GsDrx0HkpNqOv-21" value="" style="endArrow=none;html=1;rounded=0;" edge="1" parent="Oz3IrA9GsDrx0HkpNqOv-53">
          <mxGeometry width="50" height="50" relative="1" as="geometry">
            <mxPoint x="795" y="795" as="sourcePoint" />
            <mxPoint x="775" y="795" as="targetPoint" />
          </mxGeometry>
        </mxCell>
        <mxCell id="Oz3IrA9GsDrx0HkpNqOv-22" value="" style="endArrow=classic;startArrow=classic;html=1;rounded=0;" edge="1" parent="Oz3IrA9GsDrx0HkpNqOv-53">
          <mxGeometry width="50" height="50" relative="1" as="geometry">
            <mxPoint x="785" y="475" as="sourcePoint" />
            <mxPoint x="785" y="795" as="targetPoint" />
          </mxGeometry>
        </mxCell>
        <mxCell id="Oz3IrA9GsDrx0HkpNqOv-24" value="データ" style="text;html=1;align=center;verticalAlign=middle;whiteSpace=wrap;rounded=0;rotation=90;" vertex="1" parent="Oz3IrA9GsDrx0HkpNqOv-53">
          <mxGeometry x="780" y="620" width="60" height="30" as="geometry" />
        </mxCell>
        <mxCell id="Oz3IrA9GsDrx0HkpNqOv-26" value="" style="endArrow=classic;html=1;rounded=0;" edge="1" parent="Oz3IrA9GsDrx0HkpNqOv-53">
          <mxGeometry width="50" height="50" relative="1" as="geometry">
            <mxPoint x="785" y="875" as="sourcePoint" />
            <mxPoint x="785" y="795" as="targetPoint" />
          </mxGeometry>
        </mxCell>
        <mxCell id="Oz3IrA9GsDrx0HkpNqOv-27" value="ダミー" style="text;html=1;align=center;verticalAlign=middle;whiteSpace=wrap;rounded=0;rotation=90;" vertex="1" parent="Oz3IrA9GsDrx0HkpNqOv-53">
          <mxGeometry x="780" y="840" width="60" height="30" as="geometry" />
        </mxCell>
        <mxCell id="Oz3IrA9GsDrx0HkpNqOv-29" value="" style="endArrow=classic;html=1;rounded=0;exitX=0.399;exitY=0.914;exitDx=0;exitDy=0;exitPerimeter=0;" edge="1" parent="Oz3IrA9GsDrx0HkpNqOv-53" source="Oz3IrA9GsDrx0HkpNqOv-30">
          <mxGeometry width="50" height="50" relative="1" as="geometry">
            <mxPoint x="835" y="55" as="sourcePoint" />
            <mxPoint x="775" y="-45" as="targetPoint" />
          </mxGeometry>
        </mxCell>
        <mxCell id="Oz3IrA9GsDrx0HkpNqOv-30" value="&lt;font style=&quot;font-size: 20px;&quot;&gt;通信開始&lt;/font&gt;" style="text;html=1;align=center;verticalAlign=middle;whiteSpace=wrap;rounded=0;rotation=90;" vertex="1" parent="Oz3IrA9GsDrx0HkpNqOv-53">
          <mxGeometry x="825" y="-135" width="90" height="30" as="geometry" />
        </mxCell>
        <mxCell id="Oz3IrA9GsDrx0HkpNqOv-31" value="" style="endArrow=none;html=1;rounded=0;" edge="1" parent="Oz3IrA9GsDrx0HkpNqOv-53">
          <mxGeometry width="50" height="50" relative="1" as="geometry">
            <mxPoint x="565" y="-40" as="sourcePoint" />
            <mxPoint x="565" y="435" as="targetPoint" />
            <Array as="points">
              <mxPoint x="565" y="-5" />
              <mxPoint x="485" y="-5" />
              <mxPoint x="485" y="35" />
              <mxPoint x="485" y="155" />
              <mxPoint x="565" y="155" />
              <mxPoint x="565" y="435" />
            </Array>
          </mxGeometry>
        </mxCell>
        <mxCell id="Oz3IrA9GsDrx0HkpNqOv-33" value="" style="endArrow=none;html=1;rounded=0;" edge="1" parent="Oz3IrA9GsDrx0HkpNqOv-53">
          <mxGeometry width="50" height="50" relative="1" as="geometry">
            <mxPoint x="565" y="435" as="sourcePoint" />
            <mxPoint x="565" y="875" as="targetPoint" />
            <Array as="points">
              <mxPoint x="485" y="435" />
              <mxPoint x="485" y="475" />
              <mxPoint x="565" y="475" />
              <mxPoint x="565" y="515" />
              <mxPoint x="485" y="515" />
              <mxPoint x="485" y="555" />
              <mxPoint x="565" y="555" />
              <mxPoint x="565" y="595" />
              <mxPoint x="485" y="595" />
              <mxPoint x="485" y="675" />
              <mxPoint x="565" y="675" />
              <mxPoint x="565" y="715" />
              <mxPoint x="485" y="715" />
              <mxPoint x="485" y="795" />
              <mxPoint x="565" y="795" />
            </Array>
          </mxGeometry>
        </mxCell>
        <mxCell id="Oz3IrA9GsDrx0HkpNqOv-34" value="" style="endArrow=none;html=1;rounded=0;" edge="1" parent="Oz3IrA9GsDrx0HkpNqOv-53">
          <mxGeometry width="50" height="50" relative="1" as="geometry">
            <mxPoint x="575" y="35" as="sourcePoint" />
            <mxPoint x="595" y="35" as="targetPoint" />
          </mxGeometry>
        </mxCell>
        <mxCell id="Oz3IrA9GsDrx0HkpNqOv-35" value="" style="endArrow=none;html=1;rounded=0;" edge="1" parent="Oz3IrA9GsDrx0HkpNqOv-53">
          <mxGeometry width="50" height="50" relative="1" as="geometry">
            <mxPoint x="575" y="-5" as="sourcePoint" />
            <mxPoint x="595" y="-5" as="targetPoint" />
          </mxGeometry>
        </mxCell>
        <mxCell id="Oz3IrA9GsDrx0HkpNqOv-36" value="スタート" style="text;html=1;align=center;verticalAlign=middle;whiteSpace=wrap;rounded=0;rotation=90;" vertex="1" parent="Oz3IrA9GsDrx0HkpNqOv-53">
          <mxGeometry x="580" width="60" height="30" as="geometry" />
        </mxCell>
        <mxCell id="Oz3IrA9GsDrx0HkpNqOv-37" value="" style="endArrow=classic;startArrow=classic;html=1;rounded=0;" edge="1" parent="Oz3IrA9GsDrx0HkpNqOv-53">
          <mxGeometry width="50" height="50" relative="1" as="geometry">
            <mxPoint x="585" y="-5" as="sourcePoint" />
            <mxPoint x="585" y="35" as="targetPoint" />
          </mxGeometry>
        </mxCell>
        <mxCell id="Oz3IrA9GsDrx0HkpNqOv-38" value="" style="endArrow=classic;startArrow=classic;html=1;rounded=0;" edge="1" parent="Oz3IrA9GsDrx0HkpNqOv-53">
          <mxGeometry width="50" height="50" relative="1" as="geometry">
            <mxPoint x="585" y="35" as="sourcePoint" />
            <mxPoint x="585" y="355" as="targetPoint" />
          </mxGeometry>
        </mxCell>
        <mxCell id="Oz3IrA9GsDrx0HkpNqOv-39" value="" style="endArrow=none;html=1;rounded=0;" edge="1" parent="Oz3IrA9GsDrx0HkpNqOv-53">
          <mxGeometry width="50" height="50" relative="1" as="geometry">
            <mxPoint x="575" y="355" as="sourcePoint" />
            <mxPoint x="595" y="355" as="targetPoint" />
          </mxGeometry>
        </mxCell>
        <mxCell id="Oz3IrA9GsDrx0HkpNqOv-41" value="" style="endArrow=classic;startArrow=classic;html=1;rounded=0;" edge="1" parent="Oz3IrA9GsDrx0HkpNqOv-53">
          <mxGeometry width="50" height="50" relative="1" as="geometry">
            <mxPoint x="585" y="355" as="sourcePoint" />
            <mxPoint x="585" y="435" as="targetPoint" />
          </mxGeometry>
        </mxCell>
        <mxCell id="Oz3IrA9GsDrx0HkpNqOv-42" value="" style="endArrow=none;html=1;rounded=0;" edge="1" parent="Oz3IrA9GsDrx0HkpNqOv-53">
          <mxGeometry width="50" height="50" relative="1" as="geometry">
            <mxPoint x="575" y="435" as="sourcePoint" />
            <mxPoint x="595" y="435" as="targetPoint" />
          </mxGeometry>
        </mxCell>
        <mxCell id="Oz3IrA9GsDrx0HkpNqOv-43" value="" style="endArrow=classic;startArrow=classic;html=1;rounded=0;" edge="1" parent="Oz3IrA9GsDrx0HkpNqOv-53">
          <mxGeometry width="50" height="50" relative="1" as="geometry">
            <mxPoint x="585" y="435" as="sourcePoint" />
            <mxPoint x="585" y="475" as="targetPoint" />
          </mxGeometry>
        </mxCell>
        <mxCell id="Oz3IrA9GsDrx0HkpNqOv-44" value="" style="endArrow=none;html=1;rounded=0;" edge="1" parent="Oz3IrA9GsDrx0HkpNqOv-53">
          <mxGeometry width="50" height="50" relative="1" as="geometry">
            <mxPoint x="595" y="795" as="sourcePoint" />
            <mxPoint x="575" y="795" as="targetPoint" />
          </mxGeometry>
        </mxCell>
        <mxCell id="Oz3IrA9GsDrx0HkpNqOv-45" value="データ" style="text;html=1;align=center;verticalAlign=middle;whiteSpace=wrap;rounded=0;rotation=90;" vertex="1" parent="Oz3IrA9GsDrx0HkpNqOv-53">
          <mxGeometry x="580" y="620" width="60" height="30" as="geometry" />
        </mxCell>
        <mxCell id="Oz3IrA9GsDrx0HkpNqOv-46" value="" style="endArrow=classic;html=1;rounded=0;" edge="1" parent="Oz3IrA9GsDrx0HkpNqOv-53">
          <mxGeometry width="50" height="50" relative="1" as="geometry">
            <mxPoint x="585" y="875" as="sourcePoint" />
            <mxPoint x="585" y="795" as="targetPoint" />
          </mxGeometry>
        </mxCell>
        <mxCell id="Oz3IrA9GsDrx0HkpNqOv-47" value="ダミー" style="text;html=1;align=center;verticalAlign=middle;whiteSpace=wrap;rounded=0;rotation=90;" vertex="1" parent="Oz3IrA9GsDrx0HkpNqOv-53">
          <mxGeometry x="580" y="840" width="60" height="30" as="geometry" />
        </mxCell>
        <mxCell id="Oz3IrA9GsDrx0HkpNqOv-48" value="" style="endArrow=classic;startArrow=classic;html=1;rounded=0;" edge="1" parent="Oz3IrA9GsDrx0HkpNqOv-53">
          <mxGeometry width="50" height="50" relative="1" as="geometry">
            <mxPoint x="585" y="475" as="sourcePoint" />
            <mxPoint x="585" y="795" as="targetPoint" />
          </mxGeometry>
        </mxCell>
        <mxCell id="Oz3IrA9GsDrx0HkpNqOv-49" value="" style="endArrow=none;html=1;rounded=0;" edge="1" parent="Oz3IrA9GsDrx0HkpNqOv-53">
          <mxGeometry width="50" height="50" relative="1" as="geometry">
            <mxPoint x="575" y="475" as="sourcePoint" />
            <mxPoint x="595" y="475" as="targetPoint" />
          </mxGeometry>
        </mxCell>
        <mxCell id="Oz3IrA9GsDrx0HkpNqOv-50" value="スタート" style="text;html=1;align=center;verticalAlign=middle;whiteSpace=wrap;rounded=0;rotation=90;" vertex="1" parent="Oz3IrA9GsDrx0HkpNqOv-53">
          <mxGeometry x="580" y="440" width="60" height="30" as="geometry" />
        </mxCell>
        <mxCell id="Oz3IrA9GsDrx0HkpNqOv-51" value="ダミー" style="text;html=1;align=center;verticalAlign=middle;whiteSpace=wrap;rounded=0;rotation=90;" vertex="1" parent="Oz3IrA9GsDrx0HkpNqOv-53">
          <mxGeometry x="580" y="380" width="60" height="30" as="geometry" />
        </mxCell>
        <mxCell id="Oz3IrA9GsDrx0HkpNqOv-52" value="データ" style="text;html=1;align=center;verticalAlign=middle;whiteSpace=wrap;rounded=0;rotation=90;" vertex="1" parent="Oz3IrA9GsDrx0HkpNqOv-53">
          <mxGeometry x="580" y="190" width="60" height="30" as="geometry" />
        </mxCell>
        <mxCell id="Oz3IrA9GsDrx0HkpNqOv-54" value="&lt;font style=&quot;font-size: 20px;&quot;&gt;送信側の波形&lt;/font&gt;" style="text;html=1;align=center;verticalAlign=middle;whiteSpace=wrap;rounded=0;rotation=90;" vertex="1" parent="Oz3IrA9GsDrx0HkpNqOv-53">
          <mxGeometry x="630" y="-430" width="140" height="30" as="geometry" />
        </mxCell>
        <mxCell id="Oz3IrA9GsDrx0HkpNqOv-55" value="&lt;font style=&quot;font-size: 20px;&quot;&gt;受信側の波形&lt;/font&gt;" style="text;html=1;align=center;verticalAlign=middle;whiteSpace=wrap;rounded=0;rotation=90;" vertex="1" parent="Oz3IrA9GsDrx0HkpNqOv-53">
          <mxGeometry x="420" y="-430" width="160" height="30" as="geometry" />
        </mxCell>
        <mxCell id="Oz3IrA9GsDrx0HkpNqOv-56" value="" style="endArrow=none;html=1;rounded=0;dashed=1;" edge="1" parent="1">
          <mxGeometry width="50" height="50" relative="1" as="geometry">
            <mxPoint x="140" y="-680" as="sourcePoint" />
            <mxPoint x="500" y="-680" as="targetPoint" />
          </mxGeometry>
        </mxCell>
      </root>
    </mxGraphModel>
  </diagram>
</mxfile>
